<svg width="24" height="24" viewBox="0 0 24 24" fill="none" xmlns="http://www.w3.org/2000/svg">
<g clip-path="url(#clip0_1112_3570)">
<path d="M15.1572 4.06934C15.0719 3.53586 15.7417 3.19886 16.1201 3.57324L17.4775 4.91602L19.1865 4.03027C19.6698 3.7794 20.1951 4.31469 19.9551 4.79004L19.0156 6.64941C18.9603 6.75878 18.8726 6.82483 18.7734 6.84961C18.6766 6.87365 18.5758 6.85672 18.4922 6.81445C18.4085 6.77217 18.3349 6.70158 18.2969 6.60938C18.2578 6.51472 18.2591 6.40454 18.3145 6.29492L18.9482 5.03809L17.7002 5.68652C17.4805 5.80062 17.214 5.76093 17.0381 5.58691L16.0381 4.59766L16.2627 5.99316C16.3015 6.23601 16.1802 6.47536 15.9619 6.58887L14.7061 7.24023L16.0947 7.44824C16.3401 7.48492 16.5319 7.67398 16.5713 7.91895L16.793 9.30469L17.4307 8.04297C17.5417 7.82324 17.7806 7.69902 18.0244 7.73535L19.4424 7.94727L19.2822 7.78125C19.1967 7.693 19.1627 7.58737 19.1719 7.48535C19.1809 7.38618 19.2306 7.29658 19.2979 7.23145C19.3651 7.1664 19.4563 7.12006 19.5557 7.11426C19.6578 7.1084 19.7613 7.14622 19.8467 7.23438L20.4482 7.85449C20.8297 8.23795 20.4808 8.8977 19.959 8.81934L18.0615 8.53516L17.1934 10.2559C16.9416 10.7542 16.2076 10.6128 16.124 10.0918L15.8203 8.20117L13.9268 7.91895C13.3867 7.83808 13.2814 7.09546 13.751 6.85156L15.4609 5.96387L15.1572 4.06934Z" fill="#201001" stroke="#201001" stroke-width="0.2"/>
<path d="M10.8555 1.90527C11.1584 1.86582 11.4319 2.05473 11.5029 2.35156C11.574 2.64953 11.4148 2.94264 11.126 3.04492C8.02316 4.14269 5.93004 7.08721 5.91797 10.3721C5.91045 12.4359 6.70905 14.3751 8.16699 15.833C9.61806 17.2841 11.5457 18.082 13.5986 18.082C13.6085 18.082 13.6183 18.0821 13.6279 18.082C16.9129 18.0699 19.8573 15.9768 20.9551 12.874C21.0574 12.5852 21.3505 12.4261 21.6484 12.4971C21.9454 12.5681 22.134 12.8418 22.0947 13.1445C21.7804 15.5554 20.5902 17.7997 18.7441 19.4639C16.8689 21.1543 14.4759 22.0906 12.0059 22.0996C11.9933 22.0997 11.9802 22.0996 11.9678 22.0996C9.27322 22.0997 6.74461 21.0552 4.84473 19.1553C2.93596 17.2465 1.89053 14.7028 1.90039 11.9941C1.90906 9.62053 2.78266 7.29961 4.35938 5.45801C4.43921 5.36478 4.54026 5.32078 4.64258 5.32031C4.74232 5.31998 4.83603 5.36092 4.90723 5.42188C4.97834 5.48276 5.03274 5.56854 5.04785 5.66699C5.06329 5.7683 5.036 5.87538 4.95605 5.96875C3.49964 7.66977 2.69351 9.81092 2.68555 11.9971C2.67646 14.4953 3.64071 16.8399 5.40039 18.5996C7.15178 20.351 9.48273 21.3144 11.9678 21.3145C11.9794 21.3145 11.991 21.3145 12.0029 21.3145C14.2781 21.3061 16.4853 20.4416 18.2178 18.8799C19.4755 17.7461 20.4014 16.3223 20.9189 14.7627C19.3837 17.2622 16.6375 18.8571 13.6309 18.8682C13.6202 18.8682 13.6091 18.8682 13.5986 18.8682C11.3361 18.8682 9.21075 17.9881 7.61133 16.3887C6.00441 14.7818 5.12354 12.6435 5.13184 10.3691C5.14292 7.3611 6.73775 4.61195 9.23926 3.07715C8.06743 3.46539 6.9703 4.08764 6.00586 4.91699C5.91282 4.99687 5.80621 5.02487 5.70508 5.00977C5.60648 4.99495 5.5201 4.94016 5.45898 4.86914C5.39787 4.79807 5.35731 4.70424 5.35742 4.60449C5.35765 4.50214 5.40104 4.40135 5.49414 4.32129C7.03305 2.99788 8.88688 2.16184 10.8555 1.90527Z" fill="#201001" stroke="#201001" stroke-width="0.2"/>
</g>
<defs>
<clipPath id="clip0_1112_3570">
<rect width="24" height="24" fill="white"/>
</clipPath>
</defs>
</svg>
