<svg width="17" height="24" viewBox="0 0 17 24" fill="none" xmlns="http://www.w3.org/2000/svg">
<path d="M16.1118 6.46659H9.97858V0.351563C9.97858 0.157406 9.82118 0 9.62702 0H6.6769C6.48274 0 6.32533 0.157406 6.32533 0.351563V6.46659H4.15268C3.69813 6.46659 3.69813 7.16972 4.15268 7.16972H6.6769C6.87105 7.16972 7.02846 7.01231 7.02846 6.81816V0.703125H9.27546V6.81816C9.27546 7.01231 9.43287 7.16972 9.62702 7.16972H15.7602V9.38166H9.62702C9.43287 9.38166 9.27546 9.53906 9.27546 9.73322V18.8125C9.27546 19.2671 9.97858 19.2671 9.97858 18.8125V10.0848H16.1118C16.306 10.0848 16.4634 9.92738 16.4634 9.73322V6.81816C16.4634 6.624 16.306 6.46659 16.1118 6.46659Z" fill="#201001"/>
<path d="M9.627 20.5705C9.43284 20.5705 9.27544 20.7279 9.27544 20.9221V23.2971H7.02844V9.73342C7.02844 9.53927 6.87103 9.38186 6.67688 9.38186H0.703125V7.16992H2.27841C2.73295 7.16992 2.73295 6.4668 2.27841 6.4668H0.351562C0.157406 6.4668 0 6.6242 0 6.81836V9.73342C0 9.92758 0.157406 10.085 0.351562 10.085H6.32527V23.6486C6.32527 23.8428 6.48267 24.0002 6.67683 24.0002H9.62695C9.82111 24.0002 9.97852 23.8428 9.97852 23.6486V20.9221C9.97856 20.7279 9.82116 20.5705 9.627 20.5705Z" fill="#201001"/>
</svg>
