<svg width="50" height="50" viewBox="0 0 50 50" fill="none" xmlns="http://www.w3.org/2000/svg">
<path fill-rule="evenodd" clip-rule="evenodd" d="M29.8337 18.8764C29.8337 15.9987 27.5019 13.667 24.6264 13.667C21.7487 13.667 19.417 15.9987 19.417 18.8764C19.417 21.7519 21.7487 24.0837 24.6264 24.0837C27.5019 24.0837 29.8337 21.7519 29.8337 18.8764Z" stroke="#1D1C1A" stroke-width="1.5" stroke-linecap="round" stroke-linejoin="round"/>
<path fill-rule="evenodd" clip-rule="evenodd" d="M24.624 40.75C22.1272 40.75 9 30.1216 9 19.0069C9 10.3055 15.994 3.25 24.624 3.25C33.254 3.25 40.25 10.3055 40.25 19.0069C40.25 30.1216 27.1208 40.75 24.624 40.75Z" stroke="#1D1C1A" stroke-width="1.5" stroke-linecap="round" stroke-linejoin="round"/>
<path d="M33.8558 39C37.3675 39.9211 39.625 41.3557 39.625 42.9672C39.625 45.7468 32.9093 48 24.625 48C16.3407 48 9.625 45.7468 9.625 42.9672C9.625 41.3557 11.8825 39.9211 15.3942 39" stroke="#1D1C1A" stroke-width="1.5" stroke-linecap="round"/>
</svg>
