<svg width="50" height="50" viewBox="0 0 50 50" fill="none" xmlns="http://www.w3.org/2000/svg">
<path fill-rule="evenodd" clip-rule="evenodd" d="M30.2084 18.8764C30.2084 15.9987 27.8767 13.667 25.0011 13.667C22.1235 13.667 19.7917 15.9987 19.7917 18.8764C19.7917 21.7519 22.1235 24.0837 25.0011 24.0837C27.8767 24.0837 30.2084 21.7519 30.2084 18.8764Z" stroke="white" stroke-width="1.5" stroke-linecap="round" stroke-linejoin="round"/>
<path fill-rule="evenodd" clip-rule="evenodd" d="M24.999 40.75C22.5022 40.75 9.375 30.1216 9.375 19.0069C9.375 10.3055 16.369 3.25 24.999 3.25C33.629 3.25 40.625 10.3055 40.625 19.0069C40.625 30.1216 27.4958 40.75 24.999 40.75Z" stroke="white" stroke-width="1.5" stroke-linecap="round" stroke-linejoin="round"/>
<path d="M34.2308 39C37.7425 39.9211 40 41.3557 40 42.9672C40 45.7468 33.2843 48 25 48C16.7157 48 10 45.7468 10 42.9672C10 41.3557 12.2575 39.9211 15.7692 39" stroke="white" stroke-width="1.5" stroke-linecap="round"/>
</svg>
