<svg width="50" height="50" viewBox="0 0 50 50" fill="none" xmlns="http://www.w3.org/2000/svg">
<path d="M8.375 8.5H13.75V14H8.375V8.5Z" fill="white"/>
<path d="M19.125 3V19.5H3V3H19.125ZM16.4375 5.75H5.6875V16.75H16.4375V5.75Z" fill="white"/>
<path d="M13.75 36H8.375V41.5H13.75V36Z" fill="white"/>
<path d="M19.125 30.5V47H3V30.5H19.125ZM5.6875 33.25V44.25H16.4375V33.25H5.6875Z" fill="white"/>
<path d="M35.25 8.5H40.625V14H35.25V8.5Z" fill="white"/>
<path d="M29.875 3V19.5H46V3H29.875ZM43.3125 5.75V16.75H32.5625V5.75H43.3125Z" fill="white"/>
<path d="M24.5 5.75V3H27.1875V8.5H24.5V14H21.8125V5.75H24.5Z" fill="white"/>
<path d="M24.5 19.5V14H27.1875V19.5H24.5Z" fill="white"/>
<path d="M19.125 25V22.25H21.8125V19.5H24.5V25H27.1875V22.25H40.625V25H29.875V27.75H21.8125V25H19.125Z" fill="white"/>
<path d="M19.125 25V27.75H8.375V25H5.6875V27.75H3V22.25H11.0625V25H19.125Z" fill="white"/>
<path d="M46 27.75H43.3125V22.25H46V27.75Z" fill="white"/>
<path d="M43.3125 27.75H40.625V33.25H46V30.5H43.3125V27.75Z" fill="white"/>
<path d="M32.5625 27.75H37.9375V30.5H35.25V33.25H32.5625V27.75Z" fill="white"/>
<path d="M37.9375 36V33.25H35.25V36H32.5625V38.75H27.1875V41.5H35.25V36H37.9375Z" fill="white"/>
<path d="M37.9375 36H46V38.75H40.625V41.5H37.9375V36Z" fill="white"/>
<path d="M27.1875 33.25V36H29.875V30.5H21.8125V33.25H27.1875Z" fill="white"/>
<path d="M21.8125 36H24.5V44.25H35.25V47H21.8125V36Z" fill="white"/>
<path d="M46 41.5V47H37.9375V44.25H43.3125V41.5H46Z" fill="white"/>
</svg>
