<svg width="50" height="50" viewBox="0 0 50 50" fill="none" xmlns="http://www.w3.org/2000/svg">
<path d="M20.8311 4.06934C11.6263 4.06934 4.16464 11.5318 4.16443 20.736C4.16443 29.9402 11.6263 37.4027 20.8311 37.4027C24.6575 37.4027 28.2486 36.0506 31.0619 33.8818L40.1669 43.0673C40.9807 43.8798 42.3482 43.8798 43.1619 43.0673C43.9755 42.2527 43.9755 40.886 43.1619 40.0715L33.9827 30.9548C36.1511 28.1423 37.4977 24.5631 37.4977 20.736C37.4977 11.5318 30.0359 4.06934 20.8311 4.06934ZM20.8311 8.23601C27.7346 8.23601 33.3309 13.8318 33.3311 20.736C33.3311 27.6402 27.7346 33.236 20.8311 33.236C13.9276 33.236 8.3313 27.6402 8.33109 20.736C8.33109 13.8318 13.9276 8.23601 20.8311 8.23601Z" fill="white"/>
</svg>
