<svg width="55" height="57" viewBox="0 0 55 57" fill="none" xmlns="http://www.w3.org/2000/svg">
<path d="M28.1469 0.0462565C29.255 -0.160438 30.6931 0.377304 31.6479 0.639454C34.3758 1.39229 35.6606 0.296643 38.2735 2.36023C38.6551 2.66103 38.8001 3.23574 39.3616 3.44748C41.178 4.12806 44.0375 4.91787 45.3506 6.48237C45.7789 6.99322 46.0505 7.73262 46.5938 8.25356C47.4519 9.07866 49.0233 9.64665 49.6866 10.6801C49.9632 11.1103 49.9799 11.6212 50.3065 12.0715C50.5881 12.4614 51.0547 12.6026 51.2563 12.9622C51.9978 14.2847 52.3395 16.7113 52.761 18.1665C52.9194 18.711 53.4809 19.1882 53.6442 19.7966C53.9459 20.9191 54.0175 22.6802 54.2291 23.912C54.3824 24.7992 54.914 26.0192 54.959 26.8393C54.994 27.4762 54.6924 28.3467 54.6774 28.992C54.4791 37.4866 52.9693 43.7917 46.6921 49.8429C46.1905 50.3269 39.0217 54.7969 38.3551 55.0473C37.0254 55.5464 35.3473 55.128 33.8509 55.5464C31.8629 56.1026 31.2563 57.1781 28.7734 56.9748C27.3287 56.8571 27.6053 56.7395 26.0955 56.968C25.1624 57.1092 21.4163 56.4992 20.2882 56.2891C13.0877 54.9498 5.43235 49.3842 2.9711 42.328C2.82779 41.9163 2.90111 41.4659 2.73281 41.0559C2.5645 40.6459 2.03626 40.3568 1.7863 39.9938C0.891449 38.6965 1.23472 37.4732 1.01143 36.07C0.914779 35.455 0.544841 34.9323 0.404864 34.3291C-0.0967178 32.1764 0.0532569 30.7295 0.349874 28.6525C0.5915 26.962 -0.393334 26.0915 0.184901 24.2833C0.384868 23.6599 0.883117 23.0516 0.986433 22.4046C1.12141 21.561 0.806463 20.9225 0.859788 20.0957C0.959771 18.5261 2.70614 15.3198 3.55933 13.9066C4.25755 12.7504 6.59216 8.91061 7.35369 8.15441C9.68997 5.83372 12.6645 3.85247 15.639 2.56189C17.4387 1.78048 17.4987 1.76031 19.4017 1.31499C21.4963 0.825984 21.3797 0.498297 23.7659 0.521823C25.7073 0.540308 26.3722 0.377305 28.1469 0.0462565ZM27.1554 12.1606C17.9386 12.7454 18.2769 26.1738 19.0251 32.862C19.51 37.1959 20.6081 42.4355 25.4856 43.4875C36.9737 45.9645 37.247 29.3852 36.1605 21.9677C35.3873 16.686 33.3876 11.7657 27.1554 12.1606Z" fill="#433A3F"/>
</svg>
